<svg width="32" height="32" viewBox="0 0 32 32" fill="none" xmlns="http://www.w3.org/2000/svg">
<mask id="mask0" mask-type="alpha" maskUnits="userSpaceOnUse" x="4" y="2" width="23" height="28">
<path fill-rule="evenodd" clip-rule="evenodd" d="M4.00037 2.68225H26.7373V29.1536H4.00037V2.68225Z" fill="white"/>
</mask>
<g mask="url(#mask0)">
<path fill-rule="evenodd" clip-rule="evenodd" d="M10.0978 4.68225C7.88851 4.68225 6.05384 6.47158 6.00184 8.67825V22.9383C5.95251 25.2223 7.75251 27.1036 10.0138 27.1543H20.7658C22.9912 27.0623 24.7538 25.2129 24.7378 22.9463V11.1196L18.5578 4.68225H10.1138H10.0978ZM10.1138 29.1543H9.9685C6.60584 29.0783 3.9285 26.2809 4.00184 22.9169V8.65425C4.07917 5.34625 6.81117 2.68225 10.0952 2.68225H10.1178H18.9845C19.2565 2.68225 19.5165 2.79292 19.7058 2.98892L26.4592 10.0249C26.6378 10.2103 26.7378 10.4596 26.7378 10.7169V22.9383C26.7618 26.2836 24.1565 29.0169 20.8058 29.1529L10.1138 29.1543Z" fill="#3B444D"/>
</g>
<path fill-rule="evenodd" clip-rule="evenodd" d="M25.7314 11.9791H22.058C19.618 11.9724 17.634 9.98305 17.634 7.54572V3.66705C17.634 3.11505 18.082 2.66705 18.634 2.66705C19.186 2.66705 19.634 3.11505 19.634 3.66705V7.54572C19.634 8.88439 20.7234 9.97505 22.0607 9.97905H25.7314C26.2834 9.97905 26.7314 10.4271 26.7314 10.9791C26.7314 11.5311 26.2834 11.9791 25.7314 11.9791" fill="#3B444D"/>
<path fill-rule="evenodd" clip-rule="evenodd" d="M18.3849 21.4778H11.1849C10.6329 21.4778 10.1849 21.0298 10.1849 20.4778C10.1849 19.9258 10.6329 19.4778 11.1849 19.4778H18.3849C18.9369 19.4778 19.3849 19.9258 19.3849 20.4778C19.3849 21.0298 18.9369 21.4778 18.3849 21.4778" fill="#3B444D"/>
<path fill-rule="evenodd" clip-rule="evenodd" d="M15.6584 16.4752H11.1837C10.6317 16.4752 10.1837 16.0272 10.1837 15.4752C10.1837 14.9232 10.6317 14.4752 11.1837 14.4752H15.6584C16.2104 14.4752 16.6584 14.9232 16.6584 15.4752C16.6584 16.0272 16.2104 16.4752 15.6584 16.4752" fill="#3B444D"/>
</svg>
