<svg width="29" height="29" viewBox="0 0 29 29" fill="none" xmlns="http://www.w3.org/2000/svg">
<path fill-rule="evenodd" clip-rule="evenodd" d="M7.55204 4.27643C4.22913 4.27643 4.22913 4.51909 4.22913 7.48476V7.51393C4.22913 8.80543 4.22913 9.73876 4.55658 10.1331C4.87679 10.5158 5.82775 10.6931 7.55204 10.6931C9.27633 10.6931 10.2273 10.5146 10.5475 10.1319C10.875 9.73876 10.875 8.80543 10.875 7.51276C10.875 4.51909 10.875 4.27643 7.55204 4.27643M7.55204 12.4431C5.51479 12.4431 3.98625 12.2366 3.14646 11.2298C2.41663 10.3559 2.41663 9.16359 2.41663 7.51393L3.32288 7.48476H2.41663C2.41663 4.13643 2.63533 2.52643 7.55204 2.52643C12.4688 2.52643 12.6875 4.13643 12.6875 7.48476C12.6875 9.16243 12.6875 10.3559 11.9576 11.2298C11.1178 12.2366 9.58929 12.4431 7.55204 12.4431" fill="#3B444D"/>
<path fill-rule="evenodd" clip-rule="evenodd" d="M20.8437 4.27643C17.5208 4.27643 17.5208 4.51909 17.5208 7.48476V7.51393C17.5208 8.80543 17.5208 9.73876 17.8482 10.1331C18.1684 10.5158 19.1194 10.6931 20.8437 10.6931C22.568 10.6931 23.5189 10.5146 23.8391 10.1319C24.1666 9.73876 24.1666 8.80543 24.1666 7.51276C24.1666 4.51909 24.1666 4.27643 20.8437 4.27643M20.8437 12.4431C18.8064 12.4431 17.2779 12.2366 16.4381 11.2298C15.7083 10.3559 15.7083 9.16359 15.7083 7.51393L16.6145 7.48476H15.7083C15.7083 4.13643 15.927 2.52643 20.8437 2.52643C25.7604 2.52643 25.9791 4.13643 25.9791 7.48476C25.9791 9.16243 25.9791 10.3559 25.2493 11.2298C24.4095 12.2366 22.8809 12.4431 20.8437 12.4431" fill="#3B444D"/>
<path fill-rule="evenodd" clip-rule="evenodd" d="M7.55204 17.1097C4.22913 17.1097 4.22913 17.3524 4.22913 20.3181V20.3472C4.22913 21.6387 4.22913 22.5721 4.55658 22.9664C4.87679 23.3491 5.82775 23.5264 7.55204 23.5264C9.27633 23.5264 10.2273 23.3479 10.5475 22.9652C10.875 22.5721 10.875 21.6387 10.875 20.3461C10.875 17.3524 10.875 17.1097 7.55204 17.1097M7.55204 25.2764C5.51479 25.2764 3.98625 25.0699 3.14646 24.0631C2.41663 23.1892 2.41663 21.9969 2.41663 20.3472L3.32288 20.3181H2.41663C2.41663 16.9697 2.63533 15.3597 7.55204 15.3597C12.4688 15.3597 12.6875 16.9697 12.6875 20.3181C12.6875 21.9957 12.6875 23.1892 11.9576 24.0631C11.1178 25.0699 9.58929 25.2764 7.55204 25.2764" fill="#3B444D"/>
<path fill-rule="evenodd" clip-rule="evenodd" d="M20.8437 17.1097C17.5208 17.1097 17.5208 17.3524 17.5208 20.3181V20.3472C17.5208 21.6387 17.5208 22.5721 17.8482 22.9664C18.1684 23.3491 19.1194 23.5264 20.8437 23.5264C22.568 23.5264 23.5189 23.3479 23.8391 22.9652C24.1666 22.5721 24.1666 21.6387 24.1666 20.3461C24.1666 17.3524 24.1666 17.1097 20.8437 17.1097M20.8437 25.2764C18.8064 25.2764 17.2779 25.0699 16.4381 24.0631C15.7083 23.1892 15.7083 21.9969 15.7083 20.3472L16.6145 20.3181H15.7083C15.7083 16.9697 15.927 15.3597 20.8437 15.3597C25.7604 15.3597 25.9791 16.9697 25.9791 20.3181C25.9791 21.9957 25.9791 23.1892 25.2493 24.0631C24.4095 25.0699 22.8809 25.2764 20.8437 25.2764" fill="#3B444D"/>
</svg>
