<svg width="29" height="30" viewBox="0 0 29 30" fill="none" xmlns="http://www.w3.org/2000/svg">
<mask id="mask0" mask-type="alpha" maskUnits="userSpaceOnUse" x="2" y="2" width="24" height="27">
<path fill-rule="evenodd" clip-rule="evenodd" d="M2.41663 2.50061H25.7192V28.4019H2.41663V2.50061Z" fill="white"/>
</mask>
<g mask="url(#mask0)">
<path fill-rule="evenodd" clip-rule="evenodd" d="M8.70263 21.8006C8.97934 21.8006 9.25605 21.8369 9.52672 21.9119C10.3436 22.1394 11.0528 22.7044 11.4733 23.4631C11.7464 23.9394 11.8975 24.4956 11.9023 25.0631C11.9023 25.8756 12.5331 26.5269 13.3088 26.5269H14.8228C15.595 26.5269 16.2257 25.8794 16.2293 25.0806C16.2245 24.1981 16.558 23.3594 17.1682 22.7281C17.77 22.1056 18.611 21.7319 19.452 21.7569C20.003 21.7706 20.5334 21.9244 21.001 22.1994C21.6741 22.5981 22.5332 22.3606 22.9223 21.6731L23.7246 20.2894C23.9035 19.9706 23.9554 19.5706 23.86 19.2019C23.7657 18.8331 23.5289 18.5131 23.2099 18.3244C22.4631 17.8794 21.9303 17.1619 21.7091 16.3019C21.4904 15.4581 21.61 14.5369 22.0366 13.7781C22.3145 13.2781 22.7217 12.8569 23.2099 12.5669C23.8648 12.1706 24.0944 11.2844 23.7138 10.5944C23.698 10.5669 23.6835 10.5381 23.6715 10.5081L22.9634 9.23811C22.5779 8.54436 21.72 8.30561 21.047 8.70186C20.3195 9.14686 19.4544 9.27436 18.6231 9.04811C17.7929 8.82561 17.0969 8.28186 16.6631 7.51436C16.3852 7.03436 16.2342 6.47561 16.2293 5.90686C16.2402 5.47936 16.0952 5.09561 15.8318 4.81436C15.5696 4.53436 15.201 4.37561 14.8228 4.37561H13.3088C12.9342 4.37561 12.5838 4.52686 12.3192 4.79936C12.0558 5.07311 11.912 5.43686 11.9144 5.82436C11.889 7.65186 10.4451 9.12311 8.69659 9.12311C8.13593 9.11686 7.5958 8.96061 7.12697 8.67061C6.46843 8.28311 5.60809 8.52186 5.22263 9.21561L4.40459 10.6069C4.03001 11.2794 4.25959 12.1681 4.92659 12.5694C5.91622 13.1619 6.53368 14.2669 6.53368 15.4519C6.53368 16.6369 5.91622 17.7406 4.92418 18.3344C4.2608 18.7319 4.03122 19.6156 4.41547 20.3031L5.17793 21.6631C5.36643 22.0144 5.67455 22.2681 6.03101 22.3719C6.38626 22.4744 6.77776 22.4306 7.10401 22.2431C7.58372 21.9519 8.14197 21.8006 8.70263 21.8006M14.8228 28.4019H13.3088C11.5338 28.4019 10.0898 26.9094 10.0898 25.0731C10.0874 24.8469 10.0246 24.6119 9.90735 24.4081C9.71764 24.0656 9.41072 23.8206 9.05668 23.7231C8.70506 23.6256 8.3196 23.6794 8.00301 23.8694C7.24418 24.3069 6.35122 24.4131 5.53439 24.1756C4.71877 23.9369 4.01431 23.3569 3.60106 22.5881L2.84585 21.2419C1.96256 19.6569 2.48818 17.6256 4.01793 16.7106C4.45172 16.4519 4.72118 15.9694 4.72118 15.4519C4.72118 14.9344 4.45172 14.4506 4.01793 14.1919C2.48697 13.2719 1.96256 11.2356 2.84464 9.65061L3.66389 8.25936C4.5351 6.69186 6.50468 6.13936 8.04047 7.05186C8.24951 7.18061 8.47668 7.24561 8.70747 7.24811C9.46026 7.24811 10.0898 6.60561 10.1019 5.81561C10.0971 4.94436 10.4293 4.10811 11.0347 3.47686C11.6425 2.84686 12.4497 2.50061 13.3088 2.50061H14.8228C15.688 2.50061 16.529 2.86811 17.132 3.50686C17.7337 4.14936 18.066 5.03061 18.0406 5.92436C18.0431 6.12561 18.1071 6.35811 18.2231 6.56186C18.4152 6.89936 18.7185 7.13686 19.0786 7.23436C19.4387 7.32686 19.8157 7.27686 20.1359 7.08061C21.6826 6.16686 23.6509 6.71436 24.5342 8.30186L25.287 9.65061C25.3063 9.68686 25.3233 9.72186 25.3378 9.75811C26.1377 11.3219 25.6036 13.2906 24.1173 14.1894C23.9011 14.3181 23.7258 14.4981 23.605 14.7156C23.4177 15.0519 23.3658 15.4519 23.46 15.8194C23.5567 16.1944 23.7875 16.5056 24.1125 16.6981C24.846 17.1344 25.3933 17.8694 25.6121 18.7181C25.8308 19.5656 25.7111 20.4856 25.2846 21.2444L24.4823 22.6269C23.599 24.1969 21.6306 24.7406 20.0996 23.8256C19.8954 23.7044 19.6598 23.6381 19.4254 23.6319H19.4181C19.0689 23.6319 18.7101 23.7856 18.4491 24.0544C18.1844 24.3281 18.0394 24.6931 18.0418 25.0806C18.0334 26.9169 16.5894 28.4019 14.8228 28.4019" fill="#3B444D"/>
</g>
<path fill-rule="evenodd" clip-rule="evenodd" d="M14.0712 13.0933C12.8145 13.0933 11.7922 14.152 11.7922 15.452C11.7922 16.752 12.8145 17.8083 14.0712 17.8083C15.3278 17.8083 16.3501 16.752 16.3501 15.452C16.3501 14.152 15.3278 13.0933 14.0712 13.0933M14.0712 19.6833C11.8152 19.6833 9.97974 17.7858 9.97974 15.452C9.97974 13.1183 11.8152 11.2183 14.0712 11.2183C16.3271 11.2183 18.1626 13.1183 18.1626 15.452C18.1626 17.7858 16.3271 19.6833 14.0712 19.6833" fill="#3B444D"/>
</svg>
