<svg width="39" height="39" viewBox="0 0 39 39" fill="none" xmlns="http://www.w3.org/2000/svg">
<path d="M30.875 17.875H8.125C6.33007 17.875 4.875 19.3301 4.875 21.125V32.5C4.875 34.2949 6.33007 35.75 8.125 35.75H30.875C32.6699 35.75 34.125 34.2949 34.125 32.5V21.125C34.125 19.3301 32.6699 17.875 30.875 17.875Z" stroke="white" stroke-width="2" stroke-linecap="round" stroke-linejoin="round"/>
<path d="M11.375 17.875V11.375C11.375 9.22012 12.231 7.15349 13.7548 5.62976C15.2785 4.10602 17.3451 3.25 19.5 3.25C21.6549 3.25 23.7215 4.10602 25.2452 5.62976C26.769 7.15349 27.625 9.22012 27.625 11.375V17.875" stroke="white" stroke-width="2" stroke-linecap="round" stroke-linejoin="round"/>
</svg>
