<svg width="38" height="39" viewBox="0 0 38 39" fill="none" xmlns="http://www.w3.org/2000/svg">
<path d="M26.9165 4.875C27.3324 4.44821 27.826 4.10965 28.3694 3.87867C28.9127 3.64769 29.4951 3.52881 30.0832 3.52881C30.6713 3.52881 31.2536 3.64769 31.797 3.87867C32.3403 4.10965 32.834 4.44821 33.2498 4.875C33.6657 5.3018 33.9956 5.80848 34.2206 6.36612C34.4457 6.92375 34.5615 7.52142 34.5615 8.125C34.5615 8.72858 34.4457 9.32625 34.2206 9.88389C33.9956 10.4415 33.6657 10.9482 33.2498 11.375L11.8748 33.3125L3.1665 35.75L5.5415 26.8125L26.9165 4.875Z" stroke="white" stroke-width="2" stroke-linecap="round" stroke-linejoin="round"/>
</svg>
