<svg width="38" height="39" viewBox="0 0 38 39" fill="none" xmlns="http://www.w3.org/2000/svg">
<path d="M4.75 9.75H7.91667H33.25" stroke="white" stroke-width="2" stroke-linecap="round" stroke-linejoin="round"/>
<path d="M12.6665 9.75V6.5C12.6665 5.63805 13.0001 4.8114 13.594 4.2019C14.1879 3.59241 14.9933 3.25 15.8332 3.25H22.1665C23.0064 3.25 23.8118 3.59241 24.4057 4.2019C24.9995 4.8114 25.3332 5.63805 25.3332 6.5V9.75M30.0832 9.75V32.5C30.0832 33.362 29.7495 34.1886 29.1557 34.7981C28.5618 35.4076 27.7564 35.75 26.9165 35.75H11.0832C10.2433 35.75 9.43786 35.4076 8.844 34.7981C8.25013 34.1886 7.9165 33.362 7.9165 32.5V9.75H30.0832Z" stroke="white" stroke-width="2" stroke-linecap="round" stroke-linejoin="round"/>
<path d="M15.8335 17.875V27.625" stroke="white" stroke-width="2" stroke-linecap="round" stroke-linejoin="round"/>
<path d="M22.1665 17.875V27.625" stroke="white" stroke-width="2" stroke-linecap="round" stroke-linejoin="round"/>
</svg>
