<svg width="29" height="30" viewBox="0 0 29 30" fill="none" xmlns="http://www.w3.org/2000/svg">
<path fill-rule="evenodd" clip-rule="evenodd" d="M9.7146 21.026C9.2661 21.026 8.9021 20.662 8.9021 20.2135V12.7819C8.9021 12.3334 9.2661 11.9694 9.7146 11.9694C10.1631 11.9694 10.5271 12.3334 10.5271 12.7819V20.2135C10.5271 20.662 10.1631 21.026 9.7146 21.026" fill="#3B444D"/>
<path fill-rule="evenodd" clip-rule="evenodd" d="M14.7705 21.0249C14.322 21.0249 13.958 20.6609 13.958 20.2124V9.22418C13.958 8.77568 14.322 8.41168 14.7705 8.41168C15.219 8.41168 15.583 8.77568 15.583 9.22418V20.2124C15.583 20.6609 15.219 21.0249 14.7705 21.0249" fill="#3B444D"/>
<path fill-rule="evenodd" clip-rule="evenodd" d="M19.7433 21.0249C19.2948 21.0249 18.9308 20.6609 18.9308 20.2124V16.7089C18.9308 16.2604 19.2948 15.8964 19.7433 15.8964C20.1918 15.8964 20.5558 16.2604 20.5558 16.7089V20.2124C20.5558 20.6609 20.1918 21.0249 19.7433 21.0249" fill="#3B444D"/>
<path fill-rule="evenodd" clip-rule="evenodd" d="M9.65271 4.70831C6.64971 4.70831 4.70837 6.7634 4.70837 9.94623V19.5121C4.70837 22.6949 6.64971 24.75 9.65271 24.75H19.8057C22.8098 24.75 24.75 22.6949 24.75 19.5121V9.94623C24.75 6.7634 22.8098 4.70831 19.8057 4.70831H9.65271ZM19.8057 26.375H9.65271C5.72346 26.375 3.08337 23.6168 3.08337 19.5121V9.94623C3.08337 5.84148 5.72346 3.08331 9.65271 3.08331H19.8057C23.735 3.08331 26.375 5.84148 26.375 9.94623V19.5121C26.375 23.6168 23.735 26.375 19.8057 26.375V26.375Z" fill="#3B444D"/>
</svg>
