<svg width="29" height="29" viewBox="0 0 29 29" fill="none" xmlns="http://www.w3.org/2000/svg">
<path fill-rule="evenodd" clip-rule="evenodd" d="M7.64591 10.0864L8.37454 18.7526C8.42771 19.4196 8.97266 19.9198 9.63846 19.9198H9.64329H22.8274H22.8298C23.4594 19.9198 23.9971 19.451 24.0865 18.8287L25.2344 10.9033C25.261 10.7148 25.2139 10.5263 25.0991 10.374C24.9855 10.2205 24.8187 10.1215 24.6302 10.0949C24.3777 10.1045 13.8978 10.09 7.64591 10.0864V10.0864ZM9.63605 21.7323C8.04467 21.7323 6.69738 20.4902 6.56809 18.9012L5.46126 5.73763L3.6403 5.42347C3.14609 5.33647 2.81622 4.86884 2.9008 4.37463C2.9878 3.88042 3.46509 3.55901 3.94842 3.63634L6.46176 4.07134C6.86655 4.14263 7.17467 4.47855 7.20971 4.88938L7.49367 8.27392C24.7438 8.28117 24.7994 8.28963 24.8828 8.2993C25.5558 8.39717 26.1479 8.7488 26.5515 9.29013C26.9551 9.83026 27.1243 10.496 27.0276 11.163L25.8809 19.0873C25.6646 20.5953 24.3548 21.7323 22.8323 21.7323H22.8262H9.64571H9.63605Z" fill="#3B444D"/>
<path fill-rule="evenodd" clip-rule="evenodd" d="M20.8892 14.5528H17.5397C17.0382 14.5528 16.6334 14.1468 16.6334 13.6465C16.6334 13.1463 17.0382 12.7403 17.5397 12.7403H20.8892C21.3894 12.7403 21.7954 13.1463 21.7954 13.6465C21.7954 14.1468 21.3894 14.5528 20.8892 14.5528" fill="#3B444D"/>
<path fill-rule="evenodd" clip-rule="evenodd" d="M9.11618 25.0148C9.47989 25.0148 9.77352 25.3084 9.77352 25.6721C9.77352 26.0358 9.47989 26.3306 9.11618 26.3306C8.75127 26.3306 8.45764 26.0358 8.45764 25.6721C8.45764 25.3084 8.75127 25.0148 9.11618 25.0148" fill="#3B444D"/>
<mask id="mask0" mask-type="alpha" maskUnits="userSpaceOnUse" x="8" y="25" width="2" height="2">
<path fill-rule="evenodd" clip-rule="evenodd" d="M8.45703 25.6716C8.45703 26.0365 8.75066 26.3314 9.11678 26.3314V26.3314C9.48049 26.3314 9.77411 26.0365 9.77411 25.6716V25.6716C9.77411 25.3079 9.48049 25.0143 9.11678 25.0143V25.0143C8.75066 25.0143 8.45703 25.3079 8.45703 25.6716V25.6716Z" fill="white"/>
</mask>
<g mask="url(#mask0)">
<path fill-rule="evenodd" clip-rule="evenodd" d="M2.41663 32.3718H15.8158V18.9726H2.41663V32.3718Z" fill="#3B444D"/>
</g>
<path fill-rule="evenodd" clip-rule="evenodd" d="M9.11497 25.4243C8.97843 25.4243 8.86726 25.5354 8.86726 25.672C8.86726 25.9463 9.36389 25.9463 9.36389 25.672C9.36389 25.5354 9.25151 25.4243 9.11497 25.4243M9.11498 27.2368C8.25223 27.2368 7.55139 26.5347 7.55139 25.672C7.55139 24.8092 8.25223 24.1084 9.11498 24.1084C9.97773 24.1084 10.6798 24.8092 10.6798 25.672C10.6798 26.5347 9.97773 27.2368 9.11498 27.2368" fill="#3B444D"/>
<path fill-rule="evenodd" clip-rule="evenodd" d="M22.7466 25.0148C23.1103 25.0148 23.4051 25.3084 23.4051 25.6721C23.4051 26.0358 23.1103 26.3306 22.7466 26.3306C22.3816 26.3306 22.088 26.0358 22.088 25.6721C22.088 25.3084 22.3816 25.0148 22.7466 25.0148" fill="#3B444D"/>
<mask id="mask1" mask-type="alpha" maskUnits="userSpaceOnUse" x="22" y="25" width="2" height="2">
<path fill-rule="evenodd" clip-rule="evenodd" d="M22.0883 25.6716C22.0883 26.0365 22.3819 26.3314 22.7468 26.3314V26.3314C23.1093 26.3314 23.4053 26.0365 23.4053 25.6716V25.6716C23.4053 25.3079 23.1093 25.0143 22.7468 25.0143V25.0143C22.3819 25.0143 22.0883 25.3079 22.0883 25.6716V25.6716Z" fill="white"/>
</mask>
<g mask="url(#mask1)">
<path fill-rule="evenodd" clip-rule="evenodd" d="M16.0466 32.3718H29.4471V18.9726H16.0466V32.3718Z" fill="#3B444D"/>
</g>
<path fill-rule="evenodd" clip-rule="evenodd" d="M22.7453 25.4243C22.61 25.4243 22.4988 25.5354 22.4988 25.672C22.5 25.9487 22.9955 25.9463 22.9943 25.672C22.9943 25.5354 22.8819 25.4243 22.7453 25.4243M22.7453 27.2368C21.8826 27.2368 21.1818 26.5347 21.1818 25.672C21.1818 24.8092 21.8826 24.1084 22.7453 24.1084C23.6093 24.1084 24.3113 24.8092 24.3113 25.672C24.3113 26.5347 23.6093 27.2368 22.7453 27.2368" fill="#3B444D"/>
</svg>
