<svg width="29" height="29" viewBox="0 0 29 29" fill="none" xmlns="http://www.w3.org/2000/svg">
<mask id="mask0" mask-type="alpha" maskUnits="userSpaceOnUse" x="3" y="3" width="23" height="23">
<path fill-rule="evenodd" clip-rule="evenodd" d="M3 3H26V26H3V3Z" fill="white"/>
</mask>
<g mask="url(#mask0)">
<path fill-rule="evenodd" clip-rule="evenodd" d="M16.1458 18.2846C17.4966 18.2846 18.5962 19.3253 18.5962 20.6044V23.8943C18.5962 24.1691 18.8273 24.3895 19.1235 24.3959H21.2619C22.9471 24.3959 24.317 23.106 24.317 21.521V12.1905C24.3092 11.6451 24.0365 11.1317 23.5687 10.7905L16.1716 5.167C15.1787 4.41727 13.7897 4.41727 12.7934 5.16914L5.44675 10.7884C4.96095 11.1403 4.68831 11.6536 4.6827 12.2087V21.521C4.6827 23.106 6.05261 24.3959 7.7378 24.3959H9.89646C10.2005 24.3959 10.4473 24.1659 10.4473 23.8836C10.4473 23.8215 10.4552 23.7595 10.4687 23.7007V20.6044C10.4687 19.3328 11.5614 18.2932 12.9022 18.2846H16.1458ZM21.2619 26.0001H19.1033C17.8669 25.9723 16.9132 25.0472 16.9132 23.8943V20.6044C16.9132 20.2098 16.5688 19.8889 16.1458 19.8889H12.9078C12.4938 19.8911 12.1516 20.213 12.1516 20.6044V23.8836C12.1516 23.9638 12.1404 24.0408 12.1168 24.1135C11.9956 25.1723 11.0465 26.0001 9.89646 26.0001H7.7378C5.12475 26.0001 2.99976 23.9905 2.99976 21.521V12.2012C3.01098 11.1381 3.52483 10.1649 4.41231 9.52421L11.7443 3.91458C13.3588 2.69533 15.6084 2.69533 17.2195 3.91244L24.6043 9.52742C25.4715 10.1574 25.9854 11.1285 26 12.1788V21.521C26 23.9905 23.875 26.0001 21.2619 26.0001V26.0001Z" fill="#3B444D"/>
</g>
</svg>
